<?xml version="1.0" encoding="UTF-8" standalone="no"?><!DOCTYPE svg PUBLIC "-//W3C//DTD SVG 1.1//EN" "http://www.w3.org/Graphics/SVG/1.1/DTD/svg11.dtd"><svg width="100%" height="100%" viewBox="0 0 288 144" version="1.1" xmlns="http://www.w3.org/2000/svg" xmlns:xlink="http://www.w3.org/1999/xlink" xml:space="preserve" xmlns:serif="http://www.serif.com/" style="fill-rule:evenodd;clip-rule:evenodd;stroke-linejoin:round;stroke-miterlimit:10;"><g><g><rect x="0" y="0" width="288" height="144" style="fill:#fff;"/><clipPath id="_clip1"><rect x="47.074" y="94" width="179.926" height="2" clip-rule="nonzero"/></clipPath><g clip-path="url(#_clip1)"><path d="M47.074,94.703l179.918,0" style="fill:none;fill-rule:nonzero;stroke:#ebebeb;stroke-width:0.71px;"/></g><clipPath id="_clip2"><rect x="47.074" y="70" width="179.926" height="1" clip-rule="nonzero"/></clipPath><g clip-path="url(#_clip2)"><path d="M47.074,70.59l179.918,0" style="fill:none;fill-rule:nonzero;stroke:#ebebeb;stroke-width:0.71px;"/></g><clipPath id="_clip3"><rect x="47.074" y="46" width="179.926" height="1" clip-rule="nonzero"/></clipPath><g clip-path="url(#_clip3)"><path d="M47.074,46.473l179.918,0" style="fill:none;fill-rule:nonzero;stroke:#ebebeb;stroke-width:0.71px;"/></g><clipPath id="_clip4"><rect x="47.074" y="22" width="179.926" height="1" clip-rule="nonzero"/></clipPath><g clip-path="url(#_clip4)"><path d="M47.074,22.359l179.918,0" style="fill:none;fill-rule:nonzero;stroke:#ebebeb;stroke-width:0.71px;"/></g><clipPath id="_clip5"><path d="M71,5.48l1,0l0,106.52l-1,0l0,-106.52Z" clip-rule="nonzero"/></clipPath><g clip-path="url(#_clip5)"><path d="M71.609,111.582l0,-106.102" style="fill:none;fill-rule:nonzero;stroke:#ebebeb;stroke-width:0.71px;"/></g><clipPath id="_clip6"><path d="M103,5.48l2,-0l0,106.52l-2,0l0,-106.52Z" clip-rule="nonzero"/></clipPath><g clip-path="url(#_clip6)"><path d="M104.32,111.582l-0,-106.102" style="fill:none;fill-rule:nonzero;stroke:#ebebeb;stroke-width:0.71px;"/></g><clipPath id="_clip7"><path d="M136,5.48l2,-0l0,106.52l-2,0l0,-106.52Z" clip-rule="nonzero"/></clipPath><g clip-path="url(#_clip7)"><path d="M137.031,111.582l0,-106.102" style="fill:none;fill-rule:nonzero;stroke:#ebebeb;stroke-width:0.71px;"/></g><clipPath id="_clip8"><path d="M169,5.48l2,-0l0,106.52l-2,0l0,-106.52Z" clip-rule="nonzero"/></clipPath><g clip-path="url(#_clip8)"><path d="M169.746,111.582l-0,-106.102" style="fill:none;fill-rule:nonzero;stroke:#ebebeb;stroke-width:0.71px;"/></g><clipPath id="_clip9"><path d="M202,5.48l1,-0l0,106.52l-1,0l0,-106.52Z" clip-rule="nonzero"/></clipPath><g clip-path="url(#_clip9)"><path d="M202.457,111.582l0,-106.102" style="fill:none;fill-rule:nonzero;stroke:#ebebeb;stroke-width:0.71px;"/></g><clipPath id="_clip10"><rect x="47.074" y="106" width="179.926" height="2" clip-rule="nonzero"/></clipPath><g clip-path="url(#_clip10)"><path d="M47.074,106.762l179.918,0" style="fill:none;fill-rule:nonzero;stroke:#ebebeb;stroke-width:1.42px;"/></g><clipPath id="_clip11"><rect x="47.074" y="81" width="179.926" height="3" clip-rule="nonzero"/></clipPath><g clip-path="url(#_clip11)"><path d="M47.074,82.645l179.918,0" style="fill:none;fill-rule:nonzero;stroke:#ebebeb;stroke-width:1.42px;"/></g><clipPath id="_clip12"><rect x="47.074" y="57" width="179.926" height="3" clip-rule="nonzero"/></clipPath><g clip-path="url(#_clip12)"><path d="M47.074,58.531l179.918,0" style="fill:none;fill-rule:nonzero;stroke:#ebebeb;stroke-width:1.42px;"/></g><clipPath id="_clip13"><rect x="47.074" y="33" width="179.926" height="3" clip-rule="nonzero"/></clipPath><g clip-path="url(#_clip13)"><path d="M47.074,34.418l179.918,0" style="fill:none;fill-rule:nonzero;stroke:#ebebeb;stroke-width:1.42px;"/></g><clipPath id="_clip14"><rect x="47.074" y="9" width="179.926" height="3" clip-rule="nonzero"/></clipPath><g clip-path="url(#_clip14)"><path d="M47.074,10.301l179.918,0" style="fill:none;fill-rule:nonzero;stroke:#ebebeb;stroke-width:1.42px;"/></g><clipPath id="_clip15"><path d="M54,5.48l2,0l0,106.52l-2,0l0,-106.52Z" clip-rule="nonzero"/></clipPath><g clip-path="url(#_clip15)"><path d="M55.254,111.582l0,-106.102" style="fill:none;fill-rule:nonzero;stroke:#ebebeb;stroke-width:1.42px;"/></g><clipPath id="_clip16"><path d="M87,5.48l2,-0l0,106.52l-2,0l0,-106.52Z" clip-rule="nonzero"/></clipPath><g clip-path="url(#_clip16)"><path d="M87.965,111.582l0,-106.102" style="fill:none;fill-rule:nonzero;stroke:#ebebeb;stroke-width:1.42px;"/></g><clipPath id="_clip17"><path d="M119,5.48l3,-0l0,106.52l-3,0l0,-106.52Z" clip-rule="nonzero"/></clipPath><g clip-path="url(#_clip17)"><path d="M120.676,111.582l-0,-106.102" style="fill:none;fill-rule:nonzero;stroke:#ebebeb;stroke-width:1.42px;"/></g><clipPath id="_clip18"><path d="M152,5.48l3,-0l0,106.52l-3,0l0,-106.52Z" clip-rule="nonzero"/></clipPath><g clip-path="url(#_clip18)"><path d="M153.391,111.582l0,-106.102" style="fill:none;fill-rule:nonzero;stroke:#ebebeb;stroke-width:1.42px;"/></g><clipPath id="_clip19"><path d="M185,5.48l2,-0l0,106.52l-2,0l0,-106.52Z" clip-rule="nonzero"/></clipPath><g clip-path="url(#_clip19)"><path d="M186.102,111.582l0,-106.102" style="fill:none;fill-rule:nonzero;stroke:#ebebeb;stroke-width:1.42px;"/></g><clipPath id="_clip20"><path d="M218,5.48l2,0l0,106.52l-2,0l0,-106.52Z" clip-rule="nonzero"/></clipPath><g clip-path="url(#_clip20)"><path d="M218.813,111.582l-0,-106.102" style="fill:none;fill-rule:nonzero;stroke:#ebebeb;stroke-width:1.42px;"/></g><path d="M55.254,10.301l0.066,0.484l0.063,0.477l0.066,0.476l0.133,0.946l0.063,0.468l0.066,0.469l0.066,0.465l0.067,0.461l0.062,0.461l0.067,0.457l0.132,0.906l0.063,0.453l0.066,0.449l0.133,0.891l0.063,0.441l0.199,1.313l0.062,0.434l0.133,0.859l0.067,0.426l0.062,0.426l0.067,0.421l0.132,0.836l0.063,0.418l0.066,0.414l0.133,0.821l0.063,0.41l0.066,0.406l0.133,0.805l0.062,0.398l0.133,0.797l0.067,0.391l0.062,0.394l0.066,0.391l0.133,0.773l0.063,0.383l0.066,0.383l0.133,0.758l0.062,0.379l0.067,0.371l0.066,0.375l0.067,0.371l0.062,0.367l0.133,0.734l0.066,0.364l0.063,0.363l0.066,0.359l0.067,0.356l0.066,0.359l0.063,0.352l0.066,0.355l0.066,0.352l0.067,0.347l0.062,0.348l0.067,0.348l0.066,0.343l0.067,0.34l0.062,0.344l0.066,0.336l0.067,0.34l0.066,0.336l0.063,0.332l0.133,0.664l0.066,0.328l0.062,0.328l0.2,0.973l0.062,0.32l0.067,0.32l0.066,0.317l0.063,0.316l0.066,0.313l0.066,0.316l0.067,0.309l0.062,0.312l0.067,0.309l0.132,0.609l0.063,0.305l0.199,0.902l0.063,0.297l0.066,0.297l0.133,0.586l0.062,0.293l0.2,0.867l0.062,0.285l0.133,0.571l0.066,0.281l0.063,0.277l0.066,0.281l0.133,0.555l0.063,0.274l0.132,0.546l0.067,0.27l0.062,0.269l0.067,0.27l0.132,0.531l0.063,0.262l0.066,0.266l0.067,0.257l0.066,0.262l0.063,0.258l0.133,0.516l0.066,0.253l0.062,0.254l0.067,0.254l0.133,0.5l0.062,0.25l0.199,0.739l0.063,0.242l0.133,0.484l0.066,0.238l0.063,0.243l0.066,0.234l0.066,0.238l0.067,0.235l0.062,0.234l0.067,0.234l0.133,0.461l0.062,0.231l0.066,0.226l0.067,0.231l0.066,0.222l0.063,0.227l0.199,0.668l0.062,0.223l0.133,0.437l0.067,0.215l0.062,0.219l0.067,0.215l0.066,0.211l0.066,0.214l0.063,0.211l0.133,0.422l0.066,0.207l0.063,0.207l0.132,0.414l0.067,0.203l0.062,0.207l0.067,0.2l0.066,0.203l0.067,0.199l0.062,0.199l0.133,0.399l0.066,0.195l0.063,0.195l0.133,0.391l0.066,0.191l0.062,0.192l0.067,0.191l0.066,0.188l0.067,0.191l0.062,0.188l0.067,0.187l0.066,0.184l0.066,0.187l0.063,0.184l0.133,0.367l0.066,0.18l0.063,0.179l0.199,0.539l0.062,0.176l0.133,0.352l0.067,0.172l0.062,0.175l0.199,0.516l0.063,0.168l0.066,0.172l0.133,0.336l0.063,0.164l0.066,0.168l0.133,0.328l0.062,0.164l0.067,0.16l0.066,0.164l0.066,0.16l0.063,0.161l0.066,0.16l0.067,0.156l0.066,0.16l0.063,0.156l0.132,0.313l0.067,0.152l0.062,0.156l0.2,0.457l0.062,0.149l0.067,0.152l0.132,0.297l0.063,0.149l0.066,0.144l0.067,0.149l0.066,0.144l0.063,0.145l0.132,0.289l0.063,0.14l0.066,0.145l0.133,0.281l0.063,0.141l0.066,0.136l0.066,0.141l0.067,0.137l0.062,0.136l0.2,0.411l0.062,0.132l0.199,0.399l0.063,0.133l0.066,0.132l0.133,0.258l0.062,0.129l0.133,0.258l0.067,0.125l0.062,0.129l0.199,0.375l0.063,0.125l0.066,0.121l0.067,0.125l0.066,0.121l0.063,0.121l0.199,0.363l0.062,0.118l0.067,0.121l0.133,0.234l0.062,0.117l0.066,0.118l0.067,0.113l0.066,0.117l0.063,0.113l0.199,0.34l0.062,0.113l0.067,0.114l0.133,0.218l0.062,0.114l0.067,0.109l0.066,0.106l0.066,0.109l0.063,0.109l0.066,0.106l0.067,0.109l0.066,0.106l0.063,0.105l0.132,0.211l0.067,0.102l0.062,0.105l0.067,0.102l0.066,0.105l0.067,0.102l0.062,0.101l0.066,0.102l0.067,0.097l0.066,0.102l0.063,0.098l0.066,0.101l0.133,0.196l0.063,0.097l0.132,0.195l0.067,0.094l0.062,0.098l0.067,0.094l0.066,0.097l0.066,0.094l0.063,0.094l0.066,0.094l0.067,0.089l0.066,0.094l0.063,0.094l0.199,0.269l0.062,0.09l0.2,0.27l0.062,0.09l0.133,0.172l0.066,0.089l0.063,0.086l0.199,0.258l0.063,0.082l0.132,0.172l0.067,0.082l0.062,0.082l0.067,0.082l0.066,0.086l0.066,0.082l0.063,0.078l0.133,0.164l0.066,0.078l0.063,0.082l0.066,0.079l0.067,0.082l0.066,0.078l0.062,0.078l0.133,0.156l0.067,0.074l0.062,0.078l0.067,0.075l0.066,0.078l0.066,0.074l0.063,0.078l0.199,0.223l0.063,0.074l0.066,0.074l0.066,0.071l0.067,0.074l0.062,0.07l0.067,0.074l0.133,0.141l0.062,0.07l0.066,0.074l0.067,0.067l0.066,0.07l0.063,0.07l0.066,0.071l0.067,0.066l0.066,0.07l0.062,0.067l0.067,0.07l0.133,0.133l0.062,0.066l0.199,0.2l0.063,0.066l0.066,0.063l0.067,0.066l0.062,0.066l0.133,0.125l0.129,0.129l0.199,0.188l0.063,0.062l0.066,0.059l0.133,0.125l0.062,0.058l0.067,0.063l0.133,0.117l0.062,0.063l0.199,0.175l0.063,0.059l0.066,0.059l0.067,0.054l0.066,0.059l0.063,0.058l0.066,0.055l0.066,0.059l0.067,0.054l0.062,0.059l0.199,0.164l0.063,0.055l0.199,0.164l0.063,0.055l0.066,0.054l0.066,0.051l0.067,0.055l0.062,0.05l0.067,0.055l0.133,0.102l0.062,0.054l0.199,0.153l0.063,0.051l0.199,0.152l0.063,0.047l0.132,0.101l0.067,0.047l0.062,0.051l0.133,0.094l0.066,0.051l0.063,0.046l0.199,0.141l0.063,0.047l0.199,0.141l0.062,0.042l0.133,0.094l0.067,0.043l0.062,0.047l0.067,0.043l0.066,0.047l0.066,0.043l0.063,0.043l0.066,0.047l0.133,0.086l0.063,0.043l0.199,0.129l0.062,0.043l0.067,0.039l0.133,0.086l0.062,0.039l0.133,0.086l0.066,0.039l0.063,0.039l0.066,0.043l0.133,0.078l0.062,0.043l0.2,0.117l0.062,0.039l0.199,0.117l0.063,0.035l0.199,0.117l0.063,0.036l0.066,0.039l0.066,0.035l0.067,0.039l0.062,0.035l0.067,0.039l0.133,0.07l0.062,0.036l0.066,0.039l0.133,0.07l0.063,0.035l0.199,0.106l0.062,0.035l0.067,0.035l0.066,0.031l0.067,0.035l0.062,0.035l0.067,0.032l0.132,0.07l0.063,0.031l0.066,0.035l0.133,0.063l0.063,0.035l0.132,0.063l0.067,0.035l0.062,0.031l0.2,0.094l0.062,0.031l0.199,0.094l0.063,0.031l0.133,0.063l0.066,0.027l0.063,0.031l0.066,0.031l0.066,0.028l0.067,0.031l0.062,0.031l0.067,0.028l0.066,0.031l0.063,0.027l0.066,0.027l0.066,0.032l0.067,0.027l0.062,0.027l0.067,0.032l0.132,0.054l0.063,0.028l0.066,0.027l0.067,0.031l0.066,0.028l0.063,0.027l0.133,0.055l0.066,0.023l0.062,0.027l0.2,0.082l0.062,0.024l0.199,0.082l0.063,0.023l0.066,0.028l0.067,0.023l0.066,0.028l0.063,0.023l0.066,0.027l0.133,0.047l0.062,0.028l0.133,0.046l0.067,0.028l0.062,0.023l0.199,0.07l0.063,0.024l0.066,0.027l0.133,0.047l0.062,0.024l0.067,0.023l0.066,0.02l0.067,0.023l0.062,0.023l0.199,0.071l0.063,0.019l0.133,0.047l0.066,0.02l0.063,0.023l0.066,0.024l0.066,0.019l0.067,0.024l0.062,0.019l0.067,0.023l0.066,0.02l0.067,0.023l0.062,0.02l0.066,0.023l0.133,0.039l0.063,0.02l0.066,0.023l0.133,0.04l0.062,0.019l0.067,0.023l0.133,0.04l0.062,0.019l0.199,0.059l0.063,0.019l0.199,0.059l0.063,0.019l0.132,0.039l0.067,0.016l0.062,0.02l0.133,0.039l0.067,0.015l0.062,0.02l0.066,0.019l0.067,0.016l0.066,0.019l0.063,0.02l0.066,0.016l0.067,0.019l0.066,0.016l0.063,0.019l0.066,0.016l0.066,0.019l0.067,0.016l0.062,0.02l0.067,0.015l0.066,0.02l0.066,0.015l0.063,0.016l0.066,0.02l0.133,0.031l0.063,0.015l0.066,0.02l0.133,0.031l0.062,0.016l0.067,0.015l0.066,0.02l0.067,0.016l0.062,0.015l0.199,0.047l0.063,0.016l0.199,0.047l0.063,0.015l0.132,0.031l0.067,0.012l0.062,0.016l0.199,0.047l0.063,0.011l0.199,0.047l0.063,0.012l0.133,0.031l0.066,0.012l0.062,0.016l0.067,0.015l0.066,0.012l0.067,0.016l0.062,0.011l0.067,0.016l0.066,0.012l0.066,0.015l0.063,0.012l0.066,0.016l0.067,0.011l0.066,0.016l0.063,0.012l0.066,0.015l0.066,0.012l0.063,0.012l0.066,0.015l0.133,0.024l0.063,0.015l0.199,0.036l0.062,0.015l0.2,0.035l0.062,0.012l0.066,0.016l0.133,0.023l0.063,0.012l0.199,0.035l0.062,0.012l0.2,0.035l0.062,0.012l0.199,0.035l0.063,0.011l0.199,0.036l0.063,0.011l0.066,0.008l0.133,0.024l0.062,0.011l0.067,0.012l0.066,0.008l0.067,0.012l0.062,0.011l0.066,0.012l0.067,0.008l0.066,0.012l0.063,0.011l0.066,0.012l0.067,0.008l0.066,0.012l0.063,0.011l0.066,0.008l0.066,0.012l0.067,0.008l0.062,0.011l0.067,0.012l0.066,0.008l0.066,0.012l0.063,0.007l0.066,0.012l0.067,0.008l0.066,0.012l0.063,0.007l0.066,0.012l0.066,0.008l0.067,0.012l0.062,0.007l0.067,0.012l0.133,0.016l0.062,0.012l0.067,0.007l0.066,0.012l0.066,0.008l0.063,0.008l0.066,0.011l0.133,0.016l0.063,0.012l0.199,0.023l0.062,0.012l0.199,0.023l0.063,0.012l0.199,0.024l0.063,0.007l0.066,0.008l0.067,0.012l0.066,0.008l0.062,0.007l0.2,0.024l0.062,0.008l0.199,0.023l0.063,0.008l0.066,0.008l0.067,0.012l0.066,0.007l0.063,0.008l0.132,0.016l0.067,0.004l0.062,0.007l0.2,0.024l0.062,0.008l0.199,0.023l0.063,0.008l0.133,0.016l0.066,0.004l0.062,0.007l0.2,0.024l0.062,0.008l0.067,0.003l0.132,0.016l0.063,0.008l0.066,0.004l0.133,0.015l0.063,0.008l0.066,0.004l0.133,0.016l0.062,0.008l0.067,0.004l0.133,0.015l0.062,0.004l0.133,0.016l0.066,0.004l0.063,0.007l0.066,0.008l0.067,0.004l0.066,0.008l0.062,0.004l0.133,0.015l0.067,0.004l0.062,0.008l0.067,0.004l0.066,0.008l0.066,0.004l0.063,0.008l0.066,0.004l0.067,0.007l0.062,0.004l0.133,0.016l0.066,0.004l0.063,0.004l0.066,0.007l0.067,0.004l0.066,0.008l0.063,0.004l0.066,0.008l0.066,0.004l0.067,0.008l0.062,0.004l0.067,0.007l0.133,0.008l0.062,0.008l0.067,0.004l0.066,0.008l0.066,0.004l0.063,0.004l0.066,0.007l0.133,0.008l0.063,0.008l0.132,0.008l0.067,0.008l0.062,0.003l0.067,0.004l0.066,0.008l0.066,0.004l0.063,0.004l0.066,0.008l0.133,0.008l0.063,0.004l0.066,0.007l0.133,0.008l0.062,0.004l0.067,0.008l0.133,0.008l0.062,0.004l0.067,0.007l0.132,0.008l0.063,0.004l0.066,0.004l0.067,0.008l0.066,0.004l0.063,0.004l0.199,0.011l0.062,0.008l0.2,0.012l0.062,0.004l0.199,0.012l0.063,0.007l0.199,0.012l0.062,0.004l0.2,0.012l0.062,0.004l0.199,0.011l0.063,0.004l0.199,0.012l0.063,0.004l0.199,0.012l0.062,0.003l0.2,0.012l0.062,0.004l0.199,0.012l0.063,0.004l0.199,0.011l0.062,0.004l0.2,0.012l0.062,0.004l0.199,0.012l0.063,-0l0.199,0.011l0.063,0.004l0.199,0.012l0.062,-0l0.2,0.012l0.062,0.004l0.133,0.007l0.066,-0l0.063,0.004l0.199,0.012l0.063,0.004l0.066,-0l0.133,0.008l0.062,0.004l0.067,0.004l0.066,-0l0.066,0.004l0.063,0.003l0.133,0.008l0.066,-0l0.063,0.004l0.132,0.008l0.067,-0l0.062,0.004l0.133,0.008l0.067,-0l0.062,0.004l0.133,0.007l0.066,-0l0.063,0.004l0.066,0.004l0.067,-0l0.066,0.004l0.063,0.004l0.066,0.004l0.066,-0l0.067,0.004l0.062,0.004l0.067,-0l0.066,0.004l0.063,0.004l0.066,-0l0.133,0.007l0.062,-0l0.133,0.008l0.067,-0l0.062,0.004l0.066,0.004l0.067,-0l0.066,0.004l0.063,0.004l0.066,-0l0.133,0.008l0.062,-0l0.133,0.007l0.067,-0l0.062,0.004l0.067,-0l0.132,0.008l0.063,-0l0.066,0.004l0.067,-0l0.066,0.004l0.063,0.004l0.066,-0l0.066,0.004l0.067,-0l0.062,0.004l0.067,0.004l0.066,-0l0.067,0.004l0.062,-0l0.066,0.003l0.067,-0l0.066,0.004l0.063,0.004l0.066,-0l0.067,0.004l0.066,-0l0.062,0.004l0.067,-0l0.066,0.004l0.067,-0l0.062,0.004l0.067,0.004l0.066,-0l0.066,0.004l0.063,-0l0.066,0.004l0.067,-0l0.066,0.003l0.063,-0l0.066,0.004l0.066,-0l0.067,0.004l0.062,-0l0.067,0.004l0.066,-0l0.067,0.004l0.062,-0l0.066,0.004l0.067,-0l0.066,0.004l0.063,-0l0.066,0.004l0.067,-0l0.066,0.004l0.063,-0l0.066,0.004l0.066,-0l0.067,0.004l0.062,-0l0.067,0.003l0.132,-0l0.063,0.004l0.066,-0l0.067,0.004l0.066,-0l0.063,0.004l0.066,-0l0.066,0.004l0.129,-0l0.067,0.004l0.066,-0l0.067,0.004l0.062,-0l0.067,0.004l0.066,-0l0.066,0.004l0.129,-0l0.067,0.004l0.066,-0l0.063,0.004l0.132,-0l0.067,0.003l0.062,-0l0.067,0.004l0.132,-0l0.063,0.004l0.066,-0l0.067,0.004l0.129,-0l0.066,0.004l0.067,-0l0.066,0.004l0.129,-0l0.066,0.004l0.067,-0l0.062,0.004l0.133,-0l0.066,0.004l0.129,-0l0.067,0.004l0.129,-0l0.066,0.003l0.066,-0l0.067,0.004l0.129,-0l0.066,0.004l0.129,-0l0.066,0.004l0.133,-0l0.063,0.004l0.133,-0l0.066,0.004l0.129,-0l0.066,0.004l0.129,-0l0.067,0.004l0.132,-0l0.063,0.004l0.133,-0l0.066,0.004l0.129,-0l0.066,0.004l0.196,-0l0.066,0.003l0.129,-0l0.066,0.004l0.129,-0l0.067,0.004l0.195,-0l0.066,0.004l0.133,-0l0.063,0.004l0.199,-0l0.063,0.004l0.132,-0l0.067,0.004l0.195,-0l0.066,0.004l0.196,-0l0.066,0.004l0.195,-0l0.067,0.004l0.129,-0l0.066,0.004l0.196,-0l0.066,0.003l0.195,-0l0.067,0.004l0.195,-0l0.066,0.004l0.262,-0l0.066,0.004l0.196,-0l0.066,0.004l0.196,-0l0.066,0.004l0.262,-0l0.062,0.004l0.199,-0l0.063,0.004l0.262,-0l0.066,0.004l0.262,-0l0.066,0.004l0.262,-0l0.066,0.003l0.262,-0l0.062,0.004l0.262,-0l0.067,0.004l0.261,-0l0.067,0.004l0.328,-0l0.062,0.004l0.262,-0l0.066,0.004l0.329,-0l0.066,0.004l0.324,-0l0.067,0.004l0.328,-0l0.066,0.004l0.391,-0l0.066,0.004l0.328,-0l0.063,0.004l0.394,-0l0.067,0.003l0.39,-0l0.067,0.004l0.39,-0l0.067,0.004l0.457,-0l0.066,0.004l0.391,-0l0.066,0.004l0.457,-0l0.067,0.004l0.523,-0l0.067,0.004l0.523,-0l0.066,0.004l0.524,-0l0.062,0.004l0.59,-0l0.067,0.004l0.589,-0l0.063,0.004l0.656,-0l0.067,0.003l0.652,-0l0.066,0.004l0.719,-0l0.066,0.004l0.786,-0l0.066,0.004l0.785,-0l0.063,0.004l0.918,-0l0.066,0.004l0.981,-0l0.062,0.004l1.047,-0l0.066,0.004l1.18,-0l0.063,0.004l1.246,-0l0.062,0.004l1.508,-0l0.062,0.003l1.637,-0l0.067,0.004l1.898,-0l0.062,0.004l2.227,-0l0.063,0.004l2.75,-0l0.066,0.004l3.531,-0l0.067,0.004l4.906,-0l0.066,0.004l8.11,-0l0.066,0.004l25.973,-0l0.066,0.004l7.067,-0" style="fill:none;fill-rule:nonzero;stroke:#f8766d;stroke-width:1.42px;"/><path d="M55.254,10.301l0.066,0.004l0.063,0l0.199,0.011l0.063,0.008l0.132,0.016l0.067,0.012l0.062,0.007l0.067,0.016l0.066,0.012l0.066,0.015l0.063,0.016l0.133,0.031l0.066,0.02l0.063,0.019l0.066,0.024l0.067,0.019l0.066,0.024l0.062,0.023l0.067,0.024l0.133,0.054l0.062,0.028l0.067,0.031l0.066,0.027l0.066,0.031l0.063,0.032l0.066,0.035l0.067,0.031l0.066,0.035l0.063,0.035l0.066,0.039l0.066,0.036l0.067,0.039l0.062,0.039l0.067,0.043l0.066,0.039l0.067,0.043l0.062,0.043l0.133,0.086l0.066,0.047l0.063,0.046l0.133,0.094l0.066,0.051l0.062,0.047l0.133,0.101l0.067,0.055l0.062,0.051l0.199,0.164l0.063,0.055l0.133,0.117l0.066,0.054l0.063,0.059l0.066,0.063l0.066,0.058l0.067,0.063l0.062,0.062l0.2,0.188l0.062,0.066l0.066,0.066l0.067,0.063l0.066,0.07l0.063,0.067l0.066,0.066l0.133,0.141l0.062,0.066l0.067,0.074l0.133,0.141l0.062,0.074l0.067,0.071l0.066,0.074l0.063,0.074l0.066,0.078l0.133,0.149l0.062,0.078l0.199,0.234l0.063,0.078l0.066,0.078l0.133,0.164l0.063,0.078l0.132,0.165l0.067,0.085l0.062,0.082l0.067,0.083l0.133,0.171l0.062,0.086l0.199,0.258l0.063,0.086l0.066,0.09l0.067,0.086l0.066,0.09l0.063,0.09l0.199,0.269l0.062,0.094l0.067,0.09l0.066,0.093l0.066,0.09l0.063,0.094l0.199,0.281l0.063,0.094l0.066,0.094l0.067,0.097l0.066,0.094l0.062,0.098l0.067,0.097l0.066,0.094l0.067,0.098l0.062,0.098l0.067,0.097l0.066,0.102l0.066,0.097l0.063,0.098l0.066,0.102l0.067,0.097l0.066,0.102l0.063,0.101l0.066,0.098l0.133,0.203l0.062,0.102l0.067,0.105l0.133,0.203l0.062,0.106l0.066,0.101l0.067,0.106l0.066,0.101l0.063,0.106l0.199,0.316l0.062,0.106l0.2,0.316l0.062,0.11l0.133,0.21l0.066,0.11l0.063,0.109l0.066,0.106l0.133,0.218l0.063,0.11l0.066,0.109l0.066,0.106l0.067,0.113l0.062,0.109l0.2,0.328l0.062,0.114l0.133,0.218l0.066,0.114l0.063,0.113l0.066,0.109l0.067,0.114l0.066,0.109l0.062,0.113l0.2,0.34l0.062,0.113l0.199,0.34l0.063,0.114l0.066,0.113l0.067,0.117l0.066,0.113l0.063,0.114l0.066,0.117l0.133,0.226l0.062,0.118l0.067,0.113l0.133,0.234l0.062,0.114l0.133,0.234l0.066,0.113l0.063,0.117l0.199,0.352l0.063,0.117l0.066,0.113l0.133,0.235l0.062,0.121l0.199,0.351l0.063,0.118l0.133,0.234l0.066,0.121l0.063,0.117l0.132,0.235l0.067,0.121l0.062,0.117l0.067,0.117l0.066,0.121l0.067,0.117l0.062,0.121l0.067,0.118l0.066,0.121l0.066,0.117l0.063,0.121l0.066,0.117l0.067,0.121l0.066,0.118l0.063,0.121l0.066,0.117l0.066,0.121l0.063,0.121l0.066,0.117l0.133,0.242l0.063,0.118l0.132,0.242l0.067,0.117l0.062,0.121l0.133,0.242l0.067,0.117l0.062,0.121l0.199,0.364l0.063,0.117l0.199,0.363l0.062,0.121l0.067,0.118l0.133,0.242l0.062,0.121l0.199,0.363l0.063,0.117l0.199,0.364l0.063,0.121l0.132,0.242l0.067,0.117l0.062,0.121l0.2,0.363l0.062,0.121l0.066,0.122l0.067,0.117l0.066,0.121l0.063,0.121l0.199,0.363l0.062,0.121l0.067,0.118l0.133,0.242l0.062,0.121l0.067,0.121l0.066,0.117l0.066,0.121l0.063,0.121l0.066,0.121l0.067,0.118l0.066,0.121l0.063,0.121l0.066,0.121l0.066,0.117l0.067,0.121l0.062,0.121l0.067,0.121l0.066,0.117l0.067,0.122l0.062,0.121l0.066,0.117l0.067,0.121l0.066,0.117l0.063,0.121l0.066,0.121l0.067,0.118l0.066,0.121l0.063,0.117l0.066,0.121l0.066,0.117l0.067,0.121l0.062,0.117l0.067,0.121l0.066,0.118l0.066,0.121l0.063,0.117l0.066,0.121l0.133,0.234l0.063,0.121l0.066,0.118l0.066,0.121l0.067,0.117l0.062,0.117l0.067,0.117l0.066,0.121l0.067,0.118l0.062,0.117l0.067,0.117l0.066,0.121l0.066,0.117l0.063,0.117l0.199,0.352l0.063,0.117l0.199,0.352l0.062,0.117l0.199,0.352l0.063,0.117l0.199,0.351l0.063,0.114l0.199,0.351l0.062,0.113l0.133,0.235l0.067,0.113l0.062,0.117l0.067,0.114l0.132,0.234l0.063,0.113l0.066,0.117l0.133,0.227l0.063,0.117l0.066,0.113l0.066,0.118l0.067,0.113l0.062,0.113l0.067,0.113l0.066,0.118l0.067,0.113l0.062,0.113l0.133,0.227l0.066,0.117l0.063,0.113l0.199,0.34l0.062,0.113l0.067,0.114l0.066,0.109l0.067,0.113l0.062,0.114l0.199,0.339l0.063,0.11l0.133,0.226l0.062,0.11l0.067,0.113l0.066,0.109l0.066,0.114l0.063,0.109l0.066,0.113l0.067,0.11l0.066,0.113l0.063,0.109l0.066,0.114l0.133,0.218l0.062,0.11l0.067,0.113l0.133,0.219l0.062,0.109l0.199,0.328l0.063,0.11l0.199,0.328l0.063,0.109l0.199,0.328l0.062,0.106l0.133,0.218l0.066,0.106l0.063,0.109l0.066,0.106l0.133,0.219l0.063,0.105l0.066,0.105l0.066,0.11l0.067,0.105l0.062,0.11l0.2,0.316l0.062,0.106l0.067,0.109l0.132,0.211l0.063,0.105l0.199,0.317l0.063,0.105l0.066,0.106l0.066,0.101l0.067,0.106l0.062,0.105l0.067,0.106l0.066,0.101l0.066,0.106l0.063,0.105l0.066,0.102l0.067,0.105l0.066,0.102l0.063,0.105l0.066,0.102l0.067,0.105l0.066,0.102l0.062,0.101l0.067,0.106l0.133,0.203l0.062,0.102l0.067,0.105l0.132,0.203l0.063,0.102l0.199,0.304l0.063,0.102l0.066,0.098l0.133,0.203l0.062,0.101l0.067,0.102l0.066,0.098l0.067,0.101l0.062,0.098l0.133,0.203l0.066,0.098l0.063,0.097l0.066,0.102l0.067,0.097l0.066,0.102l0.062,0.098l0.133,0.195l0.067,0.101l0.062,0.098l0.199,0.293l0.063,0.098l0.199,0.293l0.063,0.093l0.199,0.293l0.062,0.094l0.133,0.196l0.067,0.093l0.062,0.098l0.066,0.094l0.067,0.097l0.066,0.094l0.063,0.098l0.199,0.281l0.062,0.098l0.2,0.281l0.062,0.094l0.199,0.281l0.063,0.094l0.199,0.281l0.063,0.09l0.199,0.281l0.062,0.09l0.067,0.094l0.066,0.089l0.067,0.094l0.062,0.09l0.066,0.094l0.133,0.179l0.063,0.094l0.199,0.27l0.063,0.093l0.199,0.27l0.062,0.09l0.133,0.18l0.063,0.085l0.199,0.27l0.062,0.09l0.067,0.086l0.132,0.179l0.063,0.086l0.066,0.09l0.067,0.086l0.066,0.09l0.063,0.086l0.066,0.086l0.067,0.09l0.066,0.086l0.062,0.086l0.067,0.089l0.133,0.172l0.062,0.086l0.199,0.258l0.063,0.086l0.199,0.258l0.063,0.086l0.066,0.082l0.133,0.172l0.062,0.082l0.133,0.172l0.067,0.082l0.062,0.086l0.133,0.164l0.066,0.086l0.063,0.082l0.066,0.082l0.067,0.086l0.066,0.082l0.062,0.082l0.133,0.164l0.067,0.086l0.062,0.082l0.133,0.164l0.066,0.078l0.063,0.082l0.199,0.246l0.063,0.082l0.066,0.078l0.133,0.164l0.062,0.078l0.067,0.082l0.066,0.078l0.067,0.083l0.062,0.078l0.066,0.078l0.067,0.082l0.066,0.078l0.063,0.078l0.066,0.082l0.133,0.156l0.062,0.078l0.2,0.235l0.062,0.078l0.199,0.234l0.063,0.078l0.133,0.157l0.066,0.074l0.063,0.078l0.066,0.078l0.066,0.074l0.067,0.079l0.062,0.074l0.067,0.078l0.066,0.074l0.067,0.078l0.062,0.074l0.066,0.079l0.133,0.148l0.063,0.074l0.066,0.078l0.133,0.149l0.063,0.074l0.199,0.223l0.062,0.074l0.199,0.223l0.063,0.074l0.066,0.07l0.133,0.148l0.063,0.071l0.132,0.148l0.067,0.071l0.062,0.074l0.067,0.07l0.066,0.074l0.067,0.071l0.062,0.07l0.067,0.074l0.132,0.141l0.063,0.074l0.199,0.211l0.063,0.07l0.199,0.211l0.062,0.07l0.199,0.211l0.063,0.071l0.066,0.066l0.133,0.141l0.063,0.07l0.066,0.066l0.067,0.071l0.066,0.066l0.062,0.071l0.067,0.066l0.066,0.07l0.067,0.067l0.062,0.07l0.133,0.133l0.066,0.07l0.063,0.066l0.133,0.133l0.066,0.071l0.063,0.066l0.132,0.133l0.063,0.066l0.199,0.199l0.063,0.067l0.066,0.062l0.133,0.133l0.062,0.067l0.067,0.062l0.328,0.328l0.066,0.063l0.063,0.066l0.133,0.125l0.128,0.129l0.067,0.063l0.066,0.066l0.067,0.062l0.062,0.063l0.133,0.125l0.129,0.129l0.199,0.187l0.063,0.063l0.066,0.062l0.066,0.059l0.067,0.062l0.062,0.063l0.133,0.125l0.067,0.059l0.062,0.062l0.066,0.063l0.067,0.058l0.066,0.063l0.063,0.062l0.066,0.059l0.067,0.062l0.066,0.059l0.063,0.058l0.066,0.063l0.066,0.058l0.067,0.063l0.062,0.059l0.133,0.117l0.066,0.062l0.063,0.059l0.199,0.176l0.063,0.058l0.199,0.176l0.062,0.059l0.2,0.175l0.062,0.055l0.199,0.176l0.063,0.055l0.133,0.117l0.066,0.054l0.063,0.059l0.066,0.055l0.066,0.058l0.067,0.055l0.062,0.059l0.133,0.109l0.066,0.059l0.063,0.054l0.066,0.055l0.067,0.059l0.066,0.054l0.063,0.055l0.199,0.164l0.062,0.055l0.067,0.058l0.066,0.055l0.067,0.051l0.062,0.054l0.199,0.164l0.063,0.055l0.133,0.11l0.066,0.05l0.063,0.055l0.066,0.055l0.066,0.05l0.067,0.055l0.062,0.055l0.067,0.051l0.066,0.054l0.067,0.051l0.062,0.055l0.066,0.051l0.067,0.054l0.066,0.051l0.063,0.051l0.066,0.054l0.133,0.102l0.062,0.055l0.2,0.152l0.062,0.051l0.199,0.152l0.063,0.055l0.066,0.051l0.067,0.047l0.066,0.05l0.063,0.051l0.199,0.152l0.062,0.051l0.067,0.047l0.133,0.102l0.062,0.05l0.066,0.047l0.133,0.102l0.063,0.047l0.066,0.051l0.067,0.046l0.066,0.051l0.062,0.047l0.067,0.051l0.133,0.094l0.062,0.05l0.133,0.094l0.066,0.051l0.063,0.047l0.133,0.094l0.062,0.05l0.199,0.141l0.063,0.047l0.199,0.14l0.063,0.047l0.199,0.141l0.062,0.047l0.067,0.047l0.066,0.043l0.067,0.047l0.062,0.046l0.067,0.047l0.066,0.043l0.066,0.047l0.063,0.047l0.066,0.043l0.067,0.047l0.066,0.043l0.063,0.047l0.066,0.047l0.066,0.043l0.067,0.046l0.062,0.043l0.067,0.043l0.066,0.047l0.066,0.043l0.063,0.047l0.199,0.129l0.063,0.047l0.199,0.129l0.062,0.043l0.067,0.047l0.133,0.086l0.062,0.043l0.199,0.128l0.063,0.043l0.133,0.086l0.066,0.039l0.063,0.043l0.199,0.129l0.062,0.043l0.067,0.039l0.133,0.086l0.062,0.039l0.133,0.086l0.066,0.039l0.063,0.043l0.066,0.039l0.067,0.043l0.066,0.039l0.062,0.043l0.067,0.039l0.066,0.043l0.067,0.039l0.062,0.039l0.067,0.043l0.132,0.079l0.063,0.043l0.199,0.117l0.063,0.043l0.199,0.117l0.062,0.039l0.2,0.117l0.062,0.039l0.199,0.117l0.063,0.039l0.199,0.118l0.062,0.039l0.067,0.035l0.133,0.078l0.062,0.039l0.067,0.039l0.066,0.035l0.066,0.039l0.063,0.039l0.066,0.036l0.067,0.039l0.066,0.035l0.063,0.039l0.066,0.039l0.066,0.035l0.067,0.039l0.062,0.035l0.067,0.039l0.133,0.071l0.062,0.039l0.133,0.07l0.066,0.039l0.063,0.035l0.066,0.035l0.067,0.039l0.066,0.036l0.063,0.035l0.066,0.035l0.066,0.039l0.067,0.035l0.062,0.035l0.199,0.106l0.063,0.035l0.199,0.105l0.063,0.036l0.199,0.105l0.062,0.035l0.2,0.106l0.062,0.031l0.199,0.105l0.063,0.032l0.199,0.105l0.063,0.031l0.066,0.035l0.066,0.032l0.067,0.035l0.062,0.035l0.067,0.031l0.066,0.035l0.063,0.032l0.066,0.035l0.066,0.031l0.067,0.035l0.062,0.032l0.067,0.035l0.133,0.062l0.062,0.035l0.133,0.063l0.066,0.035l0.063,0.031l0.133,0.063l0.066,0.035l0.062,0.031l0.2,0.094l0.062,0.035l0.199,0.094l0.063,0.031l0.199,0.094l0.063,0.031l0.199,0.094l0.062,0.031l0.133,0.063l0.067,0.027l0.062,0.031l0.199,0.094l0.063,0.027l0.199,0.094l0.062,0.027l0.133,0.063l0.067,0.027l0.062,0.031l0.067,0.028l0.132,0.062l0.063,0.028l0.066,0.031l0.067,0.027l0.066,0.031l0.063,0.028l0.066,0.031l0.066,0.027l0.067,0.032l0.062,0.027l0.067,0.027l0.066,0.032l0.067,0.027l0.062,0.027l0.066,0.032l0.133,0.054l0.063,0.031l0.199,0.082l0.063,0.032l0.199,0.082l0.062,0.027l0.067,0.027l0.066,0.032l0.066,0.027l0.063,0.027l0.199,0.082l0.063,0.028l0.199,0.082l0.062,0.027l0.133,0.055l0.067,0.023l0.062,0.028l0.199,0.082l0.063,0.027l0.066,0.027l0.067,0.024l0.066,0.027l0.063,0.027l0.066,0.028l0.066,0.023l0.067,0.028l0.062,0.027l0.067,0.023l0.132,0.055l0.063,0.023l0.066,0.028l0.067,0.023l0.066,0.028l0.063,0.027l0.066,0.023l0.067,0.028l0.066,0.023l0.062,0.028l0.067,0.023l0.066,0.027l0.067,0.024l0.062,0.027l0.133,0.047l0.066,0.027l0.063,0.024l0.066,0.027l0.133,0.047l0.063,0.027l0.199,0.071l0.062,0.027l0.2,0.07l0.062,0.028l0.199,0.07l0.063,0.023l0.066,0.024l0.067,0.027l0.066,0.024l0.062,0.023l0.2,0.07l0.062,0.024l0.199,0.07l0.063,0.024l0.199,0.07l0.063,0.023l0.066,0.024l0.066,0.019l0.063,0.024l0.199,0.07l0.063,0.023l0.066,0.024l0.066,0.019l0.067,0.024l0.062,0.023l0.067,0.024l0.066,0.019l0.067,0.024l0.062,0.023l0.066,0.02l0.133,0.047l0.063,0.019l0.133,0.047l0.066,0.019l0.063,0.024l0.066,0.023l0.066,0.02l0.067,0.023l0.062,0.02l0.067,0.023l0.066,0.02l0.066,0.023l0.063,0.02l0.066,0.023l0.067,0.02l0.066,0.023l0.063,0.02l0.066,0.023l0.133,0.039l0.062,0.024l0.067,0.019l0.066,0.024l0.067,0.019l0.062,0.02l0.067,0.023l0.132,0.039l0.063,0.024l0.199,0.058l0.063,0.024l0.199,0.058l0.062,0.02l0.067,0.023l0.132,0.039l0.063,0.02l0.199,0.058l0.063,0.024l0.199,0.058l0.062,0.02l0.2,0.059l0.062,0.019l0.199,0.059l0.063,0.019l0.199,0.059l0.063,0.015l0.199,0.059l0.062,0.02l0.133,0.039l0.067,0.015l0.062,0.02l0.199,0.058l0.063,0.016l0.199,0.059l0.062,0.015l0.133,0.039l0.067,0.016l0.062,0.019l0.067,0.02l0.066,0.016l0.066,0.019l0.063,0.02l0.066,0.015l0.067,0.02l0.066,0.015l0.063,0.02l0.066,0.019l0.066,0.016l0.067,0.02l0.062,0.015l0.067,0.02l0.066,0.015l0.067,0.02l0.062,0.016l0.066,0.019l0.067,0.016l0.066,0.019l0.063,0.016l0.066,0.019l0.067,0.016l0.066,0.02l0.062,0.015l0.067,0.016l0.066,0.019l0.067,0.016l0.062,0.016l0.067,0.019l0.066,0.016l0.066,0.019l0.063,0.016l0.133,0.031l0.066,0.02l0.063,0.015l0.066,0.016l0.066,0.019l0.067,0.016l0.062,0.016l0.067,0.015l0.066,0.02l0.067,0.016l0.062,0.015l0.133,0.031l0.066,0.02l0.063,0.016l0.199,0.046l0.063,0.016l0.132,0.031l0.067,0.02l0.062,0.015l0.199,0.047l0.063,0.016l0.133,0.031l0.062,0.016l0.199,0.047l0.063,0.015l0.199,0.047l0.063,0.016l0.199,0.047l0.062,0.011l0.2,0.047l0.062,0.016l0.133,0.031l0.066,0.012l0.063,0.016l0.199,0.046l0.063,0.016l0.066,0.012l0.133,0.031l0.062,0.016l0.067,0.011l0.133,0.032l0.062,0.015l0.066,0.012l0.133,0.031l0.063,0.012l0.133,0.031l0.066,0.012l0.062,0.015l0.067,0.016l0.066,0.012l0.067,0.015l0.062,0.012l0.133,0.031l0.066,0.012l0.063,0.016l0.066,0.011l0.067,0.016l0.066,0.012l0.063,0.015l0.066,0.016l0.066,0.012l0.067,0.015l0.062,0.012l0.067,0.016l0.066,0.011l0.067,0.016l0.062,0.012l0.066,0.015l0.133,0.024l0.063,0.016l0.066,0.011l0.067,0.016l0.066,0.012l0.062,0.015l0.133,0.024l0.067,0.015l0.062,0.012l0.067,0.012l0.066,0.015l0.066,0.012l0.063,0.016l0.199,0.035l0.063,0.015l0.132,0.024l0.067,0.016l0.062,0.011l0.133,0.024l0.067,0.015l0.062,0.012l0.133,0.023l0.066,0.016l0.063,0.012l0.199,0.035l0.063,0.016l0.199,0.035l0.062,0.011l0.067,0.012l0.066,0.016l0.066,0.012l0.063,0.011l0.199,0.035l0.063,0.012l0.199,0.035l0.062,0.016l0.2,0.035l0.062,0.012l0.199,0.035l0.063,0.012l0.199,0.035l0.063,0.012l0.199,0.035l0.062,0.011l0.067,0.008l0.132,0.024l0.063,0.011l0.199,0.036l0.063,0.011l0.133,0.024l0.066,0.007l0.062,0.012l0.2,0.035l0.062,0.012l0.067,0.012l0.066,0.008l0.066,0.011l0.063,0.012l0.133,0.023l0.066,0.008l0.063,0.012l0.132,0.023l0.067,0.008l0.062,0.012l0.133,0.023l0.063,0.008l0.132,0.024l0.067,0.007l0.062,0.012l0.133,0.024l0.067,0.007l0.062,0.012l0.066,0.012l0.067,0.008l0.066,0.011l0.063,0.012l0.066,0.008l0.133,0.023l0.062,0.008l0.067,0.012l0.066,0.008l0.067,0.011l0.062,0.012l0.067,0.008l0.066,0.012l0.066,0.008l0.063,0.011l0.066,0.008l0.133,0.023l0.063,0.008l0.066,0.012l0.066,0.008l0.067,0.012l0.062,0.007l0.067,0.012l0.066,0.008l0.067,0.012l0.062,0.007l0.066,0.012l0.067,0.008l0.066,0.012l0.063,0.007l0.066,0.012l0.067,0.008l0.066,0.012l0.063,0.008l0.066,0.011l0.133,0.016l0.062,0.012l0.067,0.007l0.066,0.012l0.066,0.008l0.063,0.008l0.066,0.011l0.067,0.008l0.066,0.012l0.063,0.008l0.066,0.008l0.066,0.011l0.067,0.008l0.062,0.012l0.133,0.016l0.067,0.011l0.062,0.008l0.067,0.008l0.066,0.012l0.066,0.007l0.063,0.008l0.066,0.008l0.067,0.012l0.066,0.008l0.063,0.007l0.066,0.012l0.133,0.016l0.062,0.008l0.067,0.011l0.132,0.016l0.063,0.008l0.066,0.011l0.133,0.016l0.063,0.008l0.066,0.012l0.133,0.015l0.062,0.008l0.067,0.008l0.066,0.012l0.067,0.007l0.062,0.008l0.199,0.024l0.063,0.011l0.199,0.024l0.063,0.008l0.132,0.015l0.067,0.012l0.062,0.008l0.2,0.023l0.062,0.008l0.199,0.023l0.063,0.008l0.066,0.012l0.133,0.016l0.062,0.007l0.2,0.024l0.062,0.008l0.199,0.023l0.063,0.008l0.199,0.023l0.063,0.008l0.199,0.024l0.062,0.007l0.2,0.024l0.062,0.008l0.199,0.023l0.063,0.008l0.066,0.004l0.133,0.015l0.062,0.008l0.2,0.024l0.062,0.007l0.199,0.024l0.063,0.004l0.199,0.023l0.063,0.008l0.132,0.016l0.063,0.004l0.199,0.023l0.063,0.008l0.066,0.008l0.066,0.004l0.067,0.007l0.062,0.008l0.133,0.016l0.067,0.004l0.062,0.008l0.199,0.023l0.063,0.004l0.199,0.023l0.063,0.004l0.199,0.024l0.062,0.004l0.199,0.023l0.063,0.004l0.199,0.023l0.063,0.004l0.133,0.016l0.066,0.004l0.062,0.008l0.067,0.007l0.066,0.004l0.067,0.008l0.062,0.008l0.067,0.004l0.132,0.015l0.063,0.004l0.133,0.016l0.066,0.004l0.063,0.008l0.066,0.008l0.066,0.003l0.067,0.008l0.062,0.008l0.067,0.004l0.066,0.008l0.067,0.004l0.062,0.007l0.066,0.008l0.067,0.004l0.066,0.008l0.063,0.004l0.133,0.016l0.066,0.003l0.062,0.008l0.067,0.004l0.066,0.008l0.067,0.004l0.062,0.008l0.067,0.008l0.066,0.003l0.066,0.008l0.063,0.004l0.066,0.008l0.067,0.004l0.066,0.008l0.063,0.004l0.066,0.007l0.066,0.004l0.067,0.008l0.062,0.008l0.067,0.004l0.066,0.008l0.067,0.004l0.062,0.007l0.066,0.004l0.067,0.008l0.066,0.004l0.063,0.008l0.133,0.008l0.066,0.007l0.062,0.004l0.067,0.008l0.066,0.004l0.067,0.008l0.062,0.004l0.067,0.008l0.066,0.003l0.066,0.008l0.063,0.004l0.066,0.008l0.133,0.008l0.063,0.008l0.066,0.004l0.066,0.007l0.067,0.004l0.062,0.008l0.133,0.008l0.067,0.008l0.062,0.004l0.066,0.007l0.133,0.008l0.063,0.008l0.133,0.008l0.066,0.008l0.063,0.004l0.066,0.007l0.133,0.008l0.062,0.008l0.133,0.008l0.066,0.008l0.063,0.004l0.066,0.003l0.067,0.008l0.066,0.004l0.063,0.004l0.066,0.008l0.133,0.008l0.062,0.008l0.133,0.007l0.067,0.008l0.062,0.004l0.067,0.004l0.066,0.008l0.066,0.004l0.063,0.004l0.066,0.007l0.133,0.008l0.063,0.004l0.066,0.008l0.133,0.008l0.062,0.004l0.067,0.007l0.132,0.008l0.063,0.008l0.133,0.008l0.062,0.004l0.067,0.008l0.133,0.007l0.062,0.004l0.066,0.004l0.067,0.008l0.066,0.004l0.063,0.004l0.066,0.004l0.067,0.008l0.066,0.003l0.062,0.004l0.133,0.008l0.067,0.008l0.062,0.004l0.199,0.012l0.063,0.007l0.199,0.012l0.063,0.004l0.066,0.008l0.133,0.008l0.062,0.004l0.133,0.007l0.067,0.008l0.062,0.004l0.199,0.012l0.063,0.004l0.066,0.004l0.067,0.007l0.066,0.004l0.062,0.004l0.2,0.012l0.062,0.004l0.067,0.004l0.066,0.008l0.066,0.004l0.063,0.003l0.199,0.012l0.063,0.004l0.199,0.012l0.062,0.008l0.2,0.011l0.062,0.004l0.199,0.012l0.063,0.004l0.199,0.012l0.063,0.003l0.199,0.012l0.062,0.008l0.199,0.012l0.063,0.004l0.199,0.011l0.063,0.004l0.199,0.012l0.062,0.004l0.2,0.012l0.062,0.004l0.199,0.011l0.063,0.004l0.199,0.012l0.063,0.004l0.199,0.011l0.062,0.004l0.199,0.012l0.063,0.004l0.199,0.012l0.063,-0l0.199,0.011l0.062,0.004l0.2,0.012l0.062,0.004l0.199,0.012l0.063,0.004l0.199,0.011l0.063,-0l0.199,0.012l0.062,0.004l0.2,0.012l0.062,0.004l0.066,0.003l0.067,-0l0.066,0.004l0.063,0.004l0.199,0.012l0.062,0.004l0.133,0.008l0.067,-0l0.062,0.004l0.199,0.011l0.063,0.004l0.133,0.008l0.066,-0l0.063,0.004l0.199,0.012l0.062,0.004l0.067,-0l0.066,0.004l0.063,0.003l0.199,0.012l0.062,0.004l0.067,-0l0.133,0.008l0.062,0.004l0.066,0.004l0.067,-0l0.066,0.004l0.063,0.003l0.199,0.012l0.063,-0l0.199,0.012l0.062,0.004l0.067,-0l0.132,0.008l0.063,0.004l0.066,0.003l0.067,-0l0.066,0.004l0.063,0.004l0.066,0.004l0.066,-0l0.067,0.004l0.062,0.004l0.133,0.008l0.067,-0l0.062,0.004l0.133,0.008l0.066,-0l0.063,0.003l0.133,0.008l0.066,-0l0.063,0.004l0.132,0.008l0.067,-0l0.062,0.004l0.133,0.008l0.066,-0l0.063,0.004l0.133,0.007l0.066,-0l0.063,0.004l0.133,0.008l0.066,-0l0.062,0.004l0.067,0.004l0.066,-0l0.067,0.004l0.062,0.004l0.067,0.004l0.066,-0l0.066,0.004l0.063,0.003l0.066,-0l0.133,0.008l0.063,0.004l0.066,-0l0.133,0.008l0.062,-0l0.133,0.008l0.067,-0l0.062,0.004l0.133,0.008l0.066,-0l0.063,0.003l0.066,0.004l0.067,-0l0.066,0.004l0.062,0.004l0.067,-0l0.133,0.008l0.062,-0l0.133,0.008l0.066,-0l0.063,0.004l0.066,0.004l0.067,-0l0.066,0.003l0.063,0.004l0.066,-0l0.133,0.008l0.062,-0l0.133,0.008l0.067,-0l0.062,0.004l0.066,-0l0.133,0.008l0.063,-0l0.133,0.008l0.066,-0l0.062,0.003l0.067,0.004l0.066,-0l0.067,0.004l0.062,-0l0.133,0.008l0.066,-0l0.063,0.004l0.066,0.004l0.067,-0l0.066,0.004l0.063,-0l0.132,0.008l0.067,-0l0.062,0.004l0.067,-0l0.133,0.007l0.062,-0l0.066,0.004l0.067,-0l0.066,0.004l0.063,0.004l0.066,-0l0.067,0.004l0.066,-0l0.063,0.004l0.066,0.004l0.066,-0l0.067,0.004l0.062,-0l0.067,0.004l0.066,-0l0.066,0.003l0.063,0.004l0.066,-0l0.067,0.004l0.066,-0l0.063,0.004l0.066,-0l0.066,0.004l0.063,0.004l0.066,-0l0.067,0.004l0.066,-0l0.063,0.004l0.066,-0l0.133,0.008l0.062,-0l0.067,0.004l0.066,-0l0.067,0.003l0.062,-0l0.067,0.004l0.066,-0l0.066,0.004l0.063,0.004l0.066,-0l0.067,0.004l0.066,-0l0.063,0.004l0.066,-0l0.066,0.004l0.067,-0l0.062,0.004l0.067,-0l0.066,0.004l0.067,-0l0.062,0.004l0.066,-0l0.133,0.007l0.063,-0l0.066,0.004l0.067,-0l0.066,0.004l0.062,-0l0.067,0.004l0.066,-0l0.067,0.004l0.062,-0l0.067,0.004l0.066,-0l0.066,0.004l0.063,-0l0.066,0.004l0.067,-0l0.066,0.004l0.063,-0l0.066,0.004l0.066,-0l0.067,0.003l0.062,-0l0.067,0.004l0.066,-0l0.067,0.004l0.062,-0l0.066,0.004l0.067,-0l0.066,0.004l0.063,-0l0.066,0.004l0.067,-0l0.066,0.004l0.062,-0l0.067,0.004l0.066,-0l0.067,0.004l0.062,-0l0.067,0.004l0.132,-0l0.063,0.004l0.066,-0l0.067,0.003l0.066,-0l0.063,0.004l0.066,-0l0.066,0.004l0.067,-0l0.062,0.004l0.067,-0l0.066,0.004l0.067,-0l0.062,0.004l0.133,-0l0.066,0.004l0.063,-0l0.066,0.004l0.067,-0l0.066,0.004l0.063,-0l0.066,0.004l0.066,-0l0.067,0.004l0.129,-0l0.066,0.003l0.066,-0l0.063,0.004l0.066,-0l0.067,0.004l0.066,-0l0.063,0.004l0.132,-0l0.067,0.004l0.062,-0l0.067,0.004l0.066,-0l0.067,0.004l0.129,-0l0.066,0.004l0.066,-0l0.063,0.004l0.066,-0l0.067,0.004l0.129,-0l0.066,0.003l0.066,-0l0.067,0.004l0.129,-0l0.066,0.004l0.066,-0l0.063,0.004l0.066,-0l0.067,0.004l0.129,-0l0.066,0.004l0.067,-0l0.066,0.004l0.129,-0l0.066,0.004l0.067,-0l0.062,0.004l0.133,-0l0.066,0.004l0.063,-0l0.066,0.004l0.133,-0l0.063,0.003l0.066,-0l0.066,0.004l0.129,-0l0.067,0.004l0.133,-0l0.062,0.004l0.066,-0l0.067,0.004l0.129,-0l0.066,0.004l0.129,-0l0.066,0.004l0.067,-0l0.066,0.004l0.129,-0l0.067,0.004l0.128,-0l0.067,0.004l0.066,-0l0.067,0.004l0.129,-0l0.066,0.003l0.129,-0l0.066,0.004l0.133,-0l0.063,0.004l0.066,-0l0.066,0.004l0.129,-0l0.067,0.004l0.133,-0l0.062,0.004l0.133,-0l0.066,0.004l0.129,-0l0.067,0.004l0.129,-0l0.066,0.004l0.066,-0l0.067,0.004l0.129,-0l0.066,0.003l0.129,-0l0.066,0.004l0.133,-0l0.063,0.004l0.132,-0l0.067,0.004l0.129,-0l0.066,0.004l0.129,-0l0.067,0.004l0.132,-0l0.063,0.004l0.199,-0l0.063,0.004l0.132,-0l0.067,0.004l0.129,-0l0.066,0.004l0.129,-0l0.066,0.004l0.133,-0l0.063,0.003l0.133,-0l0.066,0.004l0.195,-0l0.067,0.004l0.129,-0l0.066,0.004l0.129,-0l0.066,0.004l0.133,-0l0.063,0.004l0.199,-0l0.062,0.004l0.133,-0l0.067,0.004l0.195,-0l0.066,0.004l0.129,-0l0.067,0.004l0.128,-0l0.067,0.004l0.195,-0l0.067,0.003l0.132,-0l0.063,0.004l0.199,-0l0.063,0.004l0.199,-0l0.062,0.004l0.133,-0l0.067,0.004l0.195,-0l0.066,0.004l0.196,-0l0.066,0.004l0.129,-0l0.066,0.004l0.196,-0l0.066,0.004l0.195,-0l0.067,0.004l0.195,-0l0.066,0.003l0.196,-0l0.066,0.004l0.129,-0l0.066,0.004l0.196,-0l0.066,0.004l0.196,-0l0.066,0.004l0.195,-0l0.067,0.004l0.195,-0l0.066,0.004l0.262,-0l0.066,0.004l0.196,-0l0.066,0.004l0.196,-0" style="fill:none;fill-rule:nonzero;stroke:#00ba38;stroke-width:1.42px;"/><path d="M55.254,10.301l0.652,0l0.067,0.004l0.785,0l0.066,0.004l0.328,-0l0.063,0.004l0.199,0l0.063,0.003l0.199,0l0.062,0.004l0.133,-0l0.067,0.004l0.062,0l0.066,0.004l0.133,0l0.063,0.004l0.066,-0l0.067,0.004l0.066,0l0.062,0.004l0.067,0.004l0.066,-0l0.067,0.004l0.062,0l0.133,0.007l0.066,0l0.063,0.004l0.133,0.008l0.066,0l0.063,0.004l0.199,0.012l0.062,0.004l0.133,0.008l0.067,0l0.062,0.003l0.066,0.008l0.133,0.008l0.063,0.004l0.199,0.012l0.062,0.004l0.067,0.007l0.133,0.008l0.062,0.008l0.133,0.008l0.063,0.008l0.066,0.004l0.066,0.007l0.067,0.004l0.062,0.008l0.067,0.004l0.132,0.016l0.063,0.004l0.133,0.015l0.066,0.004l0.063,0.008l0.199,0.023l0.062,0.008l0.2,0.024l0.062,0.007l0.199,0.024l0.063,0.008l0.066,0.007l0.067,0.012l0.066,0.008l0.063,0.008l0.066,0.012l0.133,0.015l0.062,0.012l0.067,0.008l0.066,0.011l0.066,0.008l0.063,0.012l0.066,0.012l0.067,0.007l0.066,0.012l0.063,0.012l0.066,0.012l0.067,0.007l0.066,0.012l0.062,0.012l0.2,0.035l0.062,0.012l0.199,0.035l0.063,0.012l0.066,0.015l0.133,0.024l0.063,0.015l0.132,0.024l0.067,0.015l0.062,0.012l0.067,0.016l0.066,0.011l0.067,0.016l0.062,0.012l0.199,0.047l0.063,0.011l0.199,0.047l0.062,0.016l0.2,0.047l0.062,0.015l0.199,0.047l0.063,0.02l0.133,0.031l0.066,0.02l0.063,0.015l0.066,0.016l0.066,0.019l0.067,0.016l0.062,0.019l0.067,0.02l0.066,0.016l0.067,0.019l0.062,0.02l0.066,0.015l0.133,0.039l0.063,0.02l0.199,0.059l0.062,0.019l0.2,0.059l0.062,0.019l0.067,0.02l0.066,0.023l0.066,0.02l0.063,0.019l0.066,0.024l0.067,0.019l0.066,0.024l0.063,0.019l0.066,0.024l0.066,0.019l0.067,0.024l0.062,0.019l0.2,0.07l0.062,0.02l0.199,0.07l0.063,0.024l0.199,0.07l0.063,0.023l0.066,0.028l0.133,0.047l0.062,0.023l0.067,0.027l0.132,0.047l0.063,0.028l0.066,0.023l0.133,0.055l0.063,0.023l0.066,0.028l0.066,0.023l0.067,0.027l0.062,0.028l0.133,0.054l0.067,0.024l0.062,0.027l0.199,0.082l0.063,0.031l0.199,0.082l0.063,0.028l0.066,0.027l0.066,0.031l0.063,0.028l0.066,0.031l0.133,0.055l0.063,0.031l0.066,0.031l0.066,0.028l0.067,0.031l0.062,0.027l0.2,0.094l0.062,0.027l0.199,0.094l0.063,0.031l0.199,0.094l0.062,0.031l0.067,0.031l0.066,0.036l0.067,0.031l0.062,0.031l0.067,0.031l0.066,0.036l0.066,0.031l0.063,0.035l0.066,0.031l0.067,0.035l0.066,0.032l0.063,0.035l0.066,0.031l0.133,0.07l0.062,0.032l0.2,0.105l0.062,0.035l0.066,0.031l0.133,0.071l0.063,0.035l0.066,0.035l0.067,0.039l0.066,0.035l0.062,0.035l0.2,0.106l0.062,0.039l0.133,0.07l0.066,0.039l0.063,0.035l0.066,0.04l0.067,0.035l0.066,0.039l0.063,0.035l0.132,0.078l0.067,0.035l0.062,0.039l0.2,0.117l0.062,0.036l0.199,0.117l0.063,0.039l0.199,0.117l0.063,0.043l0.199,0.117l0.062,0.039l0.067,0.043l0.132,0.078l0.063,0.043l0.066,0.039l0.067,0.043l0.066,0.039l0.063,0.043l0.066,0.039l0.133,0.086l0.062,0.039l0.2,0.129l0.062,0.039l0.199,0.129l0.063,0.043l0.199,0.129l0.063,0.043l0.199,0.129l0.062,0.047l0.199,0.129l0.063,0.047l0.133,0.086l0.066,0.047l0.063,0.043l0.066,0.046l0.067,0.043l0.066,0.047l0.062,0.043l0.067,0.047l0.066,0.043l0.067,0.047l0.062,0.047l0.067,0.043l0.132,0.094l0.063,0.046l0.066,0.047l0.067,0.043l0.066,0.047l0.063,0.047l0.199,0.141l0.062,0.046l0.2,0.141l0.062,0.047l0.066,0.051l0.133,0.094l0.063,0.046l0.066,0.051l0.133,0.094l0.062,0.051l0.133,0.093l0.067,0.051l0.062,0.047l0.067,0.051l0.066,0.047l0.066,0.051l0.063,0.05l0.066,0.047l0.067,0.051l0.062,0.047l0.199,0.152l0.063,0.047l0.199,0.152l0.063,0.051l0.199,0.153l0.062,0.046l0.067,0.051l0.066,0.055l0.067,0.051l0.062,0.05l0.199,0.153l0.063,0.051l0.066,0.05l0.067,0.055l0.066,0.051l0.063,0.051l0.066,0.05l0.066,0.055l0.067,0.051l0.062,0.055l0.133,0.101l0.066,0.055l0.063,0.051l0.066,0.054l0.067,0.051l0.066,0.055l0.063,0.051l0.132,0.109l0.067,0.051l0.062,0.054l0.067,0.055l0.066,0.051l0.067,0.055l0.062,0.054l0.067,0.051l0.132,0.109l0.063,0.055l0.133,0.109l0.066,0.051l0.063,0.055l0.199,0.164l0.062,0.055l0.199,0.164l0.063,0.058l0.199,0.164l0.063,0.055l0.066,0.055l0.067,0.058l0.066,0.055l0.062,0.055l0.067,0.054l0.066,0.059l0.067,0.055l0.062,0.054l0.067,0.059l0.132,0.109l0.063,0.059l0.066,0.055l0.067,0.058l0.066,0.055l0.063,0.058l0.066,0.055l0.066,0.059l0.067,0.054l0.062,0.059l0.067,0.055l0.133,0.117l0.062,0.055l0.133,0.117l0.066,0.054l0.063,0.059l0.066,0.059l0.067,0.054l0.066,0.059l0.062,0.059l0.133,0.117l0.067,0.054l0.062,0.059l0.199,0.176l0.063,0.058l0.199,0.176l0.063,0.059l0.199,0.176l0.062,0.058l0.2,0.176l0.062,0.059l0.133,0.117l0.066,0.062l0.063,0.059l0.199,0.176l0.062,0.062l0.2,0.176l0.062,0.062l0.133,0.118l0.066,0.062l0.063,0.059l0.066,0.058l0.067,0.063l0.066,0.058l0.063,0.063l0.132,0.117l0.067,0.063l0.062,0.058l0.067,0.063l0.066,0.058l0.067,0.063l0.062,0.058l0.066,0.063l0.067,0.058l0.066,0.063l0.063,0.062l0.066,0.059l0.067,0.062l0.066,0.059l0.063,0.063l0.066,0.062l0.066,0.059l0.067,0.062l0.062,0.063l0.067,0.058l0.066,0.063l0.063,0.062l0.066,0.059l0.133,0.125l0.062,0.062l0.067,0.059l0.132,0.125l0.063,0.062l0.066,0.063l0.067,0.059l0.066,0.062l0.063,0.063l0.199,0.187l0.062,0.059l0.2,0.187l0.062,0.063l0.199,0.187l0.063,0.063l0.199,0.187l0.063,0.063l0.199,0.187l0.062,0.063l0.2,0.187l0.062,0.063l0.066,0.062l0.067,0.067l0.066,0.062l0.063,0.063l0.199,0.187l0.129,0.129l0.133,0.125l0.062,0.062l0.133,0.125l0.129,0.129l0.133,0.125l0.129,0.129l0.132,0.125l0.129,0.129l0.133,0.125l0.129,0.129l0.066,0.063l0.067,0.066l0.066,0.062l0.129,0.129l0.133,0.125l0.062,0.067l0.067,0.062l0.066,0.067l0.067,0.062l0.129,0.129l0.132,0.125l0.063,0.067l0.066,0.062l0.067,0.066l0.066,0.063l0.063,0.066l0.132,0.125l0.196,0.196l0.066,0.062l0.195,0.195l0.067,0.063l0.195,0.195l0.067,0.063l0.195,0.195l0.066,0.063l0.196,0.195l0.066,0.062l0.195,0.196l0.067,0.062l0.066,0.067l0.063,0.066l0.066,0.063l0.066,0.066l0.067,0.062l0.062,0.067l0.067,0.062l0.066,0.067l0.067,0.062l0.062,0.067l0.067,0.066l0.066,0.063l0.262,0.261l0.066,0.063l0.063,0.066l0.066,0.063l0.262,0.261l0.066,0.063l0.066,0.066l0.063,0.067l0.066,0.062l0.262,0.262l0.067,0.062l0.066,0.067l0.062,0.066l0.067,0.063l0.328,0.328l0.066,0.062l0.063,0.067l0.066,0.066l0.067,0.063l0.457,0.457l0.066,0.062l0.063,0.067l0.066,0.066l0.066,0.063l0.067,0.066l0.062,0.066l0.067,0.063l0.328,0.328l0.066,0.062l0.063,0.067l0.066,0.066l0.067,0.063l0.261,0.261l0.067,0.063l0.062,0.066l0.067,0.067l0.066,0.062l0.066,0.067l0.063,0.066l0.066,0.063l0.328,0.328l0.067,0.062l0.062,0.067l0.067,0.062l0.328,0.328l0.066,0.063l0.063,0.066l0.066,0.063l0.328,0.328l0.067,0.062l0.062,0.067l0.067,0.062l0.261,0.262l0.067,0.062l0.066,0.067l0.063,0.066l0.066,0.063l0.066,0.066l0.067,0.063l0.062,0.066l0.067,0.063l0.262,0.261l0.066,0.063l0.195,0.195l0.067,0.063l0.066,0.066l0.063,0.066l0.066,0.063l0.066,0.066l0.067,0.063l0.062,0.066l0.067,0.063l0.066,0.066l0.066,0.063l0.063,0.066l0.066,0.063l0.067,0.066l0.066,0.062l0.063,0.067l0.066,0.062l0.067,0.067l0.066,0.062l0.062,0.067l0.067,0.062l0.066,0.067l0.067,0.062l0.062,0.066l0.067,0.063l0.066,0.066l0.066,0.063l0.129,0.129l0.067,0.062l0.195,0.196l0.133,0.125l0.062,0.066l0.067,0.062l0.066,0.067l0.067,0.062l0.062,0.067l0.133,0.125l0.129,0.129l0.066,0.062l0.067,0.067l0.066,0.062l0.129,0.129l0.066,0.063l0.129,0.128l0.067,0.063l0.066,0.066l0.066,0.063l0.063,0.062l0.066,0.063l0.067,0.066l0.066,0.063l0.129,0.129l0.133,0.125l0.129,0.129l0.133,0.125l0.128,0.128l0.133,0.125l0.129,0.129l0.133,0.125l0.062,0.063l0.067,0.062l0.066,0.067l0.067,0.062l0.062,0.063l0.199,0.187l0.129,0.129l0.067,0.063l0.062,0.062l0.199,0.188l0.063,0.062l0.133,0.125l0.129,0.129l0.199,0.188l0.062,0.062l0.2,0.188l0.062,0.062l0.199,0.188l0.063,0.062l0.199,0.188l0.063,0.062l0.199,0.188l0.062,0.062l0.067,0.063l0.066,0.058l0.066,0.063l0.063,0.062l0.199,0.188l0.063,0.062l0.066,0.063l0.067,0.058l0.066,0.063l0.062,0.062l0.2,0.188l0.062,0.058l0.199,0.188l0.063,0.062l0.066,0.059l0.133,0.125l0.063,0.062l0.066,0.059l0.133,0.125l0.062,0.059l0.133,0.125l0.067,0.058l0.062,0.063l0.066,0.062l0.067,0.059l0.066,0.062l0.063,0.063l0.066,0.058l0.133,0.125l0.062,0.059l0.067,0.063l0.066,0.058l0.067,0.063l0.062,0.062l0.067,0.059l0.066,0.062l0.066,0.059l0.063,0.062l0.066,0.059l0.067,0.062l0.066,0.059l0.063,0.062l0.066,0.059l0.066,0.063l0.067,0.058l0.062,0.063l0.067,0.058l0.066,0.063l0.067,0.058l0.062,0.063l0.133,0.117l0.066,0.063l0.063,0.058l0.066,0.063l0.133,0.117l0.062,0.062l0.133,0.118l0.067,0.062l0.062,0.059l0.067,0.058l0.066,0.063l0.066,0.058l0.063,0.059l0.066,0.058l0.067,0.063l0.066,0.059l0.063,0.058l0.066,0.059l0.066,0.062l0.067,0.059l0.062,0.058l0.067,0.059l0.066,0.063l0.067,0.058l0.062,0.059l0.199,0.176l0.063,0.058l0.066,0.063l0.133,0.117l0.063,0.058l0.199,0.176l0.062,0.059l0.199,0.176l0.063,0.058l0.199,0.176l0.063,0.059l0.199,0.175l0.062,0.059l0.2,0.176l0.062,0.058l0.067,0.059l0.066,0.055l0.066,0.058l0.063,0.059l0.199,0.176l0.063,0.054l0.199,0.176l0.062,0.059l0.067,0.054l0.066,0.059l0.063,0.058l0.066,0.059l0.066,0.055l0.067,0.058l0.062,0.059l0.067,0.055l0.133,0.117l0.062,0.054l0.133,0.118l0.066,0.054l0.063,0.059l0.066,0.055l0.133,0.117l0.062,0.055l0.067,0.058l0.066,0.055l0.067,0.058l0.062,0.055l0.067,0.059l0.066,0.054l0.066,0.059l0.063,0.055l0.066,0.058l0.067,0.055l0.066,0.059l0.063,0.054l0.066,0.059l0.066,0.054l0.067,0.059l0.062,0.055l0.067,0.054l0.066,0.059l0.067,0.055l0.062,0.054l0.066,0.059l0.133,0.109l0.063,0.059l0.133,0.109l0.066,0.059l0.062,0.055l0.133,0.109l0.067,0.059l0.062,0.054l0.199,0.164l0.063,0.059l0.199,0.164l0.063,0.055l0.132,0.109l0.067,0.059l0.062,0.054l0.2,0.164l0.062,0.055l0.199,0.164l0.063,0.055l0.199,0.164l0.063,0.055l0.199,0.164l0.062,0.054l0.067,0.055l0.066,0.051l0.066,0.055l0.063,0.054l0.199,0.164l0.063,0.055l0.066,0.051l0.133,0.109l0.062,0.055l0.067,0.051l0.133,0.109l0.062,0.055l0.067,0.05l0.132,0.11l0.063,0.054l0.066,0.051l0.133,0.11l0.063,0.05l0.066,0.055l0.066,0.051l0.067,0.055l0.062,0.054l0.067,0.051l0.066,0.055l0.066,0.051l0.063,0.054l0.066,0.051l0.067,0.055l0.066,0.05l0.063,0.055l0.066,0.051l0.067,0.055l0.066,0.05l0.062,0.055l0.067,0.051l0.066,0.055l0.067,0.05l0.062,0.055l0.133,0.102l0.066,0.054l0.063,0.051l0.066,0.051l0.067,0.055l0.066,0.05l0.063,0.051l0.066,0.055l0.133,0.101l0.062,0.055l0.2,0.152l0.062,0.055l0.199,0.152l0.063,0.051l0.066,0.051l0.067,0.055l0.066,0.05l0.062,0.051l0.2,0.153l0.062,0.05l0.199,0.153l0.063,0.05l0.066,0.055l0.133,0.102l0.063,0.047l0.132,0.101l0.063,0.051l0.199,0.152l0.063,0.051l0.199,0.152l0.062,0.051l0.067,0.047l0.133,0.102l0.062,0.05l0.066,0.051l0.067,0.047l0.066,0.051l0.063,0.051l0.133,0.101l0.066,0.047l0.063,0.051l0.066,0.051l0.066,0.046l0.067,0.051l0.062,0.051l0.067,0.047l0.132,0.101l0.063,0.047l0.066,0.051l0.067,0.047l0.066,0.051l0.063,0.051l0.066,0.046l0.066,0.051l0.067,0.047l0.062,0.051l0.067,0.047l0.066,0.051l0.067,0.046l0.062,0.051l0.067,0.047l0.066,0.051l0.066,0.047l0.063,0.051l0.133,0.093l0.066,0.051l0.063,0.047l0.066,0.051l0.133,0.093l0.062,0.051l0.133,0.094l0.066,0.051l0.063,0.047l0.133,0.093l0.066,0.051l0.063,0.047l0.133,0.094l0.066,0.051l0.062,0.046l0.2,0.141l0.062,0.047l0.067,0.047l0.066,0.051l0.066,0.046l0.063,0.047l0.199,0.141l0.063,0.047l0.199,0.14l0.062,0.047l0.2,0.141l0.062,0.047l0.199,0.14l0.063,0.047l0.133,0.094l0.066,0.043l0.062,0.047l0.2,0.141l0.062,0.046l0.067,0.043l0.132,0.094l0.063,0.047l0.066,0.043l0.133,0.094l0.063,0.047l0.066,0.043l0.133,0.093l0.062,0.043l0.133,0.094l0.067,0.043l0.062,0.047l0.066,0.047l0.067,0.043l0.066,0.047l0.063,0.043l0.066,0.046l0.067,0.043l0.066,0.047l0.062,0.043l0.133,0.094l0.067,0.043l0.062,0.043l0.067,0.047l0.066,0.043l0.066,0.047l0.063,0.043l0.066,0.047l0.067,0.043l0.066,0.046l0.063,0.043l0.066,0.043l0.066,0.047l0.067,0.043l0.062,0.043l0.067,0.047l0.133,0.086l0.062,0.047l0.199,0.129l0.063,0.047l0.199,0.129l0.063,0.042l0.066,0.047l0.133,0.086l0.062,0.043l0.199,0.129l0.063,0.047l0.133,0.086l0.062,0.043l0.199,0.129l0.063,0.043l0.199,0.129l0.063,0.043l0.199,0.129l0.062,0.043l0.133,0.086l0.067,0.039l0.062,0.043l0.199,0.128l0.063,0.043l0.066,0.039l0.133,0.086l0.063,0.043l0.066,0.043l0.066,0.039l0.067,0.043l0.062,0.043l0.067,0.043l0.066,0.039l0.067,0.043l0.062,0.043l0.066,0.039l0.133,0.086l0.063,0.039l0.133,0.086l0.066,0.039l0.062,0.043l0.067,0.039l0.133,0.086l0.062,0.039l0.067,0.043l0.066,0.039l0.066,0.043l0.063,0.039l0.066,0.043l0.067,0.04l0.066,0.042l0.063,0.04l0.066,0.043l0.133,0.078l0.062,0.043l0.067,0.039l0.066,0.043l0.067,0.039l0.062,0.039l0.066,0.043l0.133,0.078l0.063,0.043l0.133,0.078l0.066,0.043l0.062,0.039l0.133,0.078l0.067,0.043l0.062,0.039l0.133,0.078l0.066,0.043l0.063,0.039l0.199,0.117l0.063,0.04l0.066,0.043l0.133,0.078l0.062,0.039l0.2,0.117l0.062,0.039l0.199,0.117l0.063,0.039l0.199,0.117l0.063,0.039l0.199,0.118l0.062,0.039l0.133,0.078l0.066,0.035l0.063,0.039l0.199,0.117l0.063,0.039l0.066,0.039l0.066,0.036l0.067,0.039l0.062,0.039l0.067,0.039l0.066,0.035l0.067,0.039l0.062,0.039l0.067,0.039l0.066,0.035l0.066,0.039l0.063,0.039l0.066,0.035l0.133,0.079l0.063,0.035l0.132,0.078l0.067,0.035l0.062,0.039l0.067,0.035l0.132,0.078l0.063,0.036l0.066,0.039l0.067,0.035l0.066,0.039l0.063,0.035l0.066,0.039l0.067,0.035l0.066,0.039l0.062,0.035l0.067,0.039l0.133,0.071l0.062,0.039l0.067,0.035l0.066,0.039l0.066,0.035l0.063,0.035l0.066,0.039l0.067,0.036l0.066,0.039l0.063,0.035l0.066,0.035l0.066,0.039l0.067,0.035l0.062,0.035l0.067,0.036l0.066,0.039l0.063,0.035l0.132,0.07l0.067,0.039l0.062,0.035l0.2,0.106l0.062,0.039l0.199,0.105l0.063,0.035l0.133,0.071l0.066,0.039l0.062,0.035l0.2,0.105l0.062,0.036l0.199,0.105l0.063,0.035l0.199,0.106l0.063,0.035l0.199,0.105l0.062,0.035l0.067,0.032l0.133,0.07l0.062,0.035l0.199,0.106l0.063,0.031l0.199,0.105l0.063,0.036l0.066,0.031l0.133,0.07l0.062,0.035l0.067,0.031l0.132,0.071l0.063,0.035l0.066,0.031l0.133,0.071l0.063,0.031l0.132,0.07l0.067,0.031l0.062,0.035l0.067,0.032l0.133,0.07l0.062,0.031l0.067,0.035l0.066,0.032l0.066,0.035l0.063,0.031l0.066,0.035l0.067,0.032l0.066,0.035l0.063,0.031l0.066,0.035l0.066,0.031l0.067,0.035l0.062,0.032l0.067,0.035l0.066,0.031l0.066,0.035l0.063,0.032l0.066,0.031l0.067,0.035l0.066,0.031l0.063,0.035l0.133,0.063l0.066,0.035l0.062,0.031l0.067,0.032l0.066,0.035l0.067,0.031l0.062,0.031l0.067,0.035l0.132,0.063l0.063,0.031l0.066,0.035l0.133,0.063l0.063,0.031l0.066,0.031l0.066,0.035l0.067,0.032l0.062,0.031l0.2,0.094l0.062,0.031l0.066,0.035l0.133,0.063l0.063,0.031l0.199,0.094l0.062,0.031l0.2,0.094l0.062,0.031l0.199,0.094l0.063,0.031l0.199,0.094l0.063,0.031l0.199,0.094l0.062,0.031l0.067,0.027l0.133,0.063l0.062,0.031l0.199,0.094l0.063,0.027l0.199,0.094l0.062,0.027l0.2,0.094l0.062,0.027l0.199,0.094l0.063,0.027l0.133,0.063l0.066,0.027l0.063,0.031l0.066,0.032l0.066,0.027l0.063,0.031l0.066,0.028l0.133,0.062l0.063,0.027l0.066,0.032l0.066,0.027l0.067,0.031l0.062,0.031l0.067,0.028l0.066,0.031l0.067,0.027l0.062,0.032l0.067,0.027l0.066,0.031l0.066,0.028l0.063,0.031l0.133,0.055l0.066,0.031l0.063,0.027l0.066,0.031l0.066,0.028l0.067,0.031l0.062,0.027l0.067,0.028l0.066,0.031l0.066,0.027l0.063,0.032l0.133,0.054l0.066,0.031l0.063,0.028l0.133,0.054l0.066,0.032l0.062,0.027l0.067,0.027l0.066,0.032l0.067,0.027l0.062,0.027l0.067,0.028l0.066,0.031l0.066,0.027l0.063,0.028l0.133,0.054l0.066,0.032l0.063,0.027l0.199,0.082l0.062,0.027l0.067,0.028l0.066,0.031l0.067,0.027l0.062,0.028l0.199,0.082l0.063,0.027l0.199,0.082l0.062,0.027l0.2,0.082l0.062,0.028l0.199,0.082l0.063,0.027l0.199,0.082l0.063,0.027l0.199,0.082l0.062,0.024l0.2,0.082l0.062,0.027l0.133,0.055l0.066,0.023l0.063,0.028l0.199,0.082l0.062,0.023l0.2,0.082l0.062,0.024l0.199,0.082l0.063,0.023l0.133,0.055l0.066,0.023l0.063,0.028l0.066,0.027l0.066,0.023l0.067,0.028l0.062,0.027l0.067,0.024l0.066,0.027l0.067,0.023l0.062,0.028l0.066,0.027l0.067,0.023l0.066,0.028l0.063,0.023l0.066,0.028l0.067,0.023l0.066,0.027l0.063,0.028l0.066,0.023l0.066,0.027l0.067,0.024l0.062,0.027l0.067,0.024l0.066,0.027l0.066,0.023l0.063,0.024l0.066,0.027l0.067,0.024l0.066,0.027l0.063,0.023l0.066,0.028l0.066,0.023l0.067,0.028l0.062,0.023l0.067,0.023l0.066,0.028l0.067,0.023l0.062,0.024l0.067,0.027l0.132,0.047l0.063,0.027l0.133,0.047l0.066,0.027l0.063,0.024l0.066,0.023l0.066,0.028l0.067,0.023l0.062,0.024l0.067,0.023l0.066,0.027l0.066,0.024l0.063,0.023l0.133,0.047l0.062,0.027l0.2,0.071l0.062,0.023l0.066,0.028l0.133,0.046l0.063,0.024l0.199,0.07l0.062,0.024l0.067,0.027l0.133,0.047l0.062,0.023l0.199,0.071l0.063,0.023l0.199,0.07l0.063,0.024l0.199,0.07l0.062,0.024l0.2,0.07l0.062,0.023l0.199,0.071l0.063,0.023l0.066,0.02l0.133,0.046l0.062,0.024l0.2,0.07l0.062,0.024l0.067,0.019l0.132,0.047l0.063,0.023l0.133,0.047l0.066,0.02l0.063,0.023l0.132,0.047l0.067,0.02l0.062,0.023l0.133,0.047l0.067,0.02l0.062,0.023l0.133,0.047l0.066,0.019l0.063,0.024l0.066,0.023l0.067,0.02l0.066,0.023l0.063,0.024l0.066,0.019l0.133,0.047l0.062,0.02l0.067,0.023l0.066,0.02l0.066,0.023l0.063,0.023l0.066,0.02l0.067,0.023l0.066,0.02l0.063,0.023l0.066,0.024l0.066,0.019l0.067,0.024l0.062,0.019l0.067,0.024l0.066,0.019l0.067,0.024l0.062,0.019l0.067,0.024l0.066,0.019l0.066,0.024l0.063,0.019l0.066,0.024l0.067,0.019l0.066,0.024l0.063,0.019l0.066,0.02l0.066,0.023l0.067,0.02l0.062,0.023l0.067,0.02l0.066,0.023l0.066,0.02l0.063,0.019l0.066,0.024l0.067,0.019l0.066,0.024l0.063,0.019l0.066,0.02l0.067,0.023l0.066,0.02l0.062,0.019l0.067,0.024l0.133,0.039l0.062,0.023l0.199,0.059l0.063,0.023l0.199,0.059l0.063,0.023l0.199,0.059l0.062,0.023l0.2,0.059l0.062,0.019l0.066,0.024l0.133,0.039l0.063,0.019l0.199,0.059l0.062,0.023l0.2,0.059l0.062,0.019l0.199,0.059l0.063,0.02l0.066,0.019l0.067,0.024l0.066,0.019l0.063,0.02l0.199,0.058l0.062,0.02l0.133,0.039l0.063,0.019l0.199,0.059l0.062,0.019l0.2,0.059l0.062,0.016l0.199,0.058l0.063,0.02l0.199,0.058l0.063,0.02l0.132,0.039l0.067,0.016l0.062,0.019l0.199,0.059l0.063,0.019l0.066,0.016l0.133,0.039l0.063,0.019l0.066,0.02l0.066,0.016l0.067,0.019l0.062,0.02l0.133,0.039l0.067,0.015l0.062,0.02l0.133,0.039l0.066,0.016l0.063,0.019l0.066,0.02l0.067,0.015l0.066,0.02l0.063,0.019l0.066,0.02l0.066,0.015l0.067,0.02l0.062,0.02l0.067,0.015l0.132,0.039l0.063,0.016l0.133,0.039l0.066,0.016l0.063,0.019l0.066,0.016l0.133,0.039l0.062,0.015l0.067,0.02l0.066,0.016l0.067,0.019l0.062,0.02l0.067,0.015l0.066,0.02l0.066,0.015l0.063,0.02l0.066,0.016l0.067,0.019l0.066,0.016l0.063,0.019l0.066,0.016l0.066,0.019l0.067,0.016l0.062,0.02l0.067,0.015l0.066,0.02l0.067,0.015l0.062,0.02l0.066,0.015l0.067,0.02l0.066,0.016l0.063,0.019l0.133,0.031l0.066,0.02l0.062,0.016l0.067,0.019l0.066,0.016l0.067,0.019l0.062,0.016l0.067,0.016l0.066,0.019l0.066,0.016l0.063,0.015l0.066,0.02l0.067,0.015l0.066,0.02l0.063,0.016l0.066,0.015l0.066,0.02l0.067,0.015l0.062,0.016l0.067,0.016l0.066,0.019l0.067,0.016l0.062,0.015l0.066,0.02l0.133,0.031l0.063,0.02l0.199,0.047l0.062,0.019l0.2,0.047l0.062,0.016l0.067,0.019l0.132,0.031l0.063,0.016l0.066,0.02l0.133,0.031l0.063,0.015l0.132,0.032l0.067,0.019l0.062,0.016l0.2,0.047l0.062,0.015l0.133,0.032l0.066,0.019l0.063,0.016l0.199,0.047l0.063,0.015l0.199,0.047l0.062,0.016l0.199,0.047l0.063,0.015l0.066,0.02l0.133,0.031l0.063,0.016l0.132,0.031l0.063,0.016l0.199,0.046l0.063,0.012l0.199,0.047l0.062,0.016l0.2,0.047l0.062,0.015l0.199,0.047l0.063,0.016l0.133,0.031l0.066,0.012l0.063,0.015l0.199,0.047l0.062,0.016l0.067,0.015l0.066,0.012l0.067,0.016l0.062,0.015l0.199,0.047l0.063,0.012l0.199,0.047l0.062,0.015l0.067,0.012l0.133,0.031l0.062,0.016l0.067,0.016l0.066,0.011l0.066,0.016l0.063,0.016l0.066,0.015l0.067,0.012l0.066,0.016l0.063,0.015l0.066,0.012l0.133,0.031l0.062,0.016l0.067,0.012l0.133,0.031l0.062,0.011l0.133,0.032l0.066,0.011l0.063,0.016l0.066,0.016l0.067,0.011l0.066,0.016l0.062,0.016l0.067,0.011l0.133,0.032l0.062,0.011l0.067,0.016l0.066,0.012l0.066,0.015l0.063,0.016l0.066,0.012l0.067,0.015l0.066,0.012l0.063,0.016l0.066,0.015l0.066,0.012l0.067,0.016l0.062,0.011l0.067,0.016l0.066,0.012l0.067,0.015l0.062,0.012l0.066,0.016l0.067,0.011l0.066,0.016l0.063,0.016l0.066,0.011l0.067,0.016l0.066,0.012l0.063,0.015l0.066,0.012l0.066,0.016l0.067,0.011l0.062,0.016l0.133,0.023l0.066,0.016l0.063,0.012l0.066,0.015l0.067,0.012l0.066,0.016l0.063,0.011l0.066,0.016l0.133,0.024l0.062,0.015l0.067,0.012l0.066,0.015l0.067,0.012l0.062,0.012l0.067,0.016l0.066,0.011l0.066,0.016l0.063,0.012l0.066,0.011l0.067,0.016l0.066,0.012l0.063,0.011l0.066,0.016l0.066,0.012l0.067,0.015l0.062,0.012l0.067,0.012l0.066,0.015l0.066,0.012l0.063,0.012l0.066,0.012l0.067,0.015l0.066,0.012l0.063,0.012l0.066,0.015l0.133,0.024l0.062,0.015l0.2,0.035l0.062,0.016l0.199,0.035l0.063,0.016l0.199,0.035l0.063,0.016l0.199,0.035l0.062,0.012l0.067,0.015l0.133,0.024l0.062,0.011l0.066,0.012l0.067,0.016l0.062,0.011l0.2,0.036l0.062,0.011l0.066,0.016l0.133,0.023l0.063,0.012l0.199,0.035l0.062,0.012l0.067,0.016l0.133,0.023l0.062,0.012l0.199,0.035l0.063,0.012l0.199,0.035l0.063,0.011l0.066,0.016l0.133,0.024l0.062,0.011l0.2,0.035l0.062,0.012l0.199,0.035l0.063,0.012l0.199,0.035l0.063,0.012l0.199,0.035l0.062,0.012l0.199,0.035l0.063,0.012l0.199,0.035l0.063,0.008l0.199,0.035l0.062,0.011l0.2,0.036l0.062,0.011l0.133,0.024l0.066,0.008l0.063,0.011l0.199,0.035l0.063,0.012l0.132,0.024l0.067,0.007l0.062,0.012l0.199,0.035l0.063,0.012l0.066,0.012l0.067,0.008l0.066,0.011l0.063,0.012l0.133,0.023l0.066,0.008l0.062,0.012l0.2,0.035l0.062,0.008l0.199,0.035l0.063,0.012l0.066,0.008l0.133,0.023l0.063,0.012l0.066,0.008l0.133,0.023l0.062,0.012l0.067,0.008l0.133,0.023l0.062,0.008l0.199,0.035l0.063,0.008l0.133,0.023l0.066,0.008l0.062,0.012l0.067,0.011l0.066,0.008l0.067,0.012l0.062,0.012l0.067,0.008l0.132,0.023l0.063,0.008l0.133,0.023l0.066,0.008l0.063,0.012l0.066,0.011l0.066,0.008l0.067,0.012l0.062,0.012l0.067,0.008l0.066,0.011l0.067,0.008l0.062,0.012l0.066,0.011l0.067,0.008l0.066,0.012l0.063,0.008l0.133,0.023l0.066,0.008l0.062,0.012l0.067,0.008l0.066,0.011l0.067,0.008l0.062,0.012l0.067,0.012l0.066,0.007l0.066,0.012l0.063,0.008l0.066,0.012l0.067,0.007l0.066,0.012l0.063,0.008l0.066,0.012l0.066,0.008l0.067,0.011l0.062,0.008l0.133,0.023l0.067,0.008l0.062,0.012l0.066,0.008l0.067,0.012l0.062,0.007l0.067,0.008l0.066,0.012l0.067,0.008l0.062,0.011l0.067,0.008l0.066,0.012l0.066,0.008l0.063,0.011l0.066,0.008l0.067,0.012l0.066,0.008l0.063,0.012l0.066,0.007l0.066,0.012l0.067,0.008l0.062,0.008l0.067,0.011l0.066,0.008l0.066,0.012l0.063,0.008l0.066,0.008l0.067,0.011l0.066,0.008l0.063,0.012l0.066,0.008l0.067,0.011" style="fill:none;fill-rule:nonzero;stroke:#619cff;stroke-width:1.42px;"/><text x="18.871px" y="110.09px" style="font-family:'ArialMT', 'Arial', sans-serif;font-size:9.3px;fill:#4d4d4d;">0.000</text><text x="18.871px" y="85.973px" style="font-family:'ArialMT', 'Arial', sans-serif;font-size:9.3px;fill:#4d4d4d;">0.025</text><text x="18.871px" y="61.859px" style="font-family:'ArialMT', 'Arial', sans-serif;font-size:9.3px;fill:#4d4d4d;">0.050</text><text x="18.871px" y="37.746px" style="font-family:'ArialMT', 'Arial', sans-serif;font-size:9.3px;fill:#4d4d4d;">0.075</text><text x="18.871px" y="13.633px" style="font-family:'ArialMT', 'Arial', sans-serif;font-size:9.3px;fill:#4d4d4d;">0.100</text><text x="52.668px" y="123.172px" style="font-family:'ArialMT', 'Arial', sans-serif;font-size:9.3px;fill:#4d4d4d;">0	<tspan x="85.375px 90.546px 115.498px " y="123.172px 123.172px 123.172px ">5	1</tspan>0	<tspan x="148.208px " y="123.172px ">1</tspan>5</text><g transform="matrix(1,0,0,1,5,5)"><text x="175.93px" y="118.172px" style="font-family:'ArialMT', 'Arial', sans-serif;font-size:9.3px;fill:#4d4d4d;">20	<tspan x="208.638px " y="118.172px ">2</tspan>5</text><text x="93.355px" y="131.102px" style="font-family:'ArialMT', 'Arial', sans-serif;font-size:11.5px;">Zeit in Stunden</text></g><g transform="matrix(0,-1,1,0,0,10)"><text x="-88.168px" y="13.711px" style="font-family:'ArialMT', 'Arial', sans-serif;font-size:11.5px;">Salzgehalt in %</text></g><g transform="matrix(1,0,0,1,5,5)"><text x="238.43px" y="28.988px" style="font-family:'ArialMT', 'Arial', sans-serif;font-size:11.5px;">T</text><text x="245.445px" y="28.988px" style="font-family:'ArialMT', 'Arial', sans-serif;font-size:11.5px;">ank</text><text x="261.188px" y="47.648px" style="font-family:'ArialMT', 'Arial', sans-serif;font-size:9.3px;">T1</text><text x="261.188px" y="64.928px" style="font-family:'ArialMT', 'Arial', sans-serif;font-size:9.3px;">T2</text><text x="261.188px" y="82.208px" style="font-family:'ArialMT', 'Arial', sans-serif;font-size:9.3px;">T3</text></g><path d="M245.156,49.316l13.824,-0" style="fill:none;fill-rule:nonzero;stroke:#f8766d;stroke-width:1.42px;"/><path d="M245.156,66.598l13.824,0" style="fill:none;fill-rule:nonzero;stroke:#00ba38;stroke-width:1.42px;"/><path d="M245.156,83.879l13.824,-0" style="fill:none;fill-rule:nonzero;stroke:#619cff;stroke-width:1.42px;"/></g></g></svg>